<svg width="953" height="497" xmlns="http://www.w3.org/2000/svg"><g fill="none" fill-rule="evenodd"><path fill="rgba(255, 165, 0)" opacity=".16" d="M0 0h953v497H0z"/><path d="M.322 496.73s1.26-1.02 1.878-1.283c.618-.262 4.863-1.391 5.543-1.866.68-.475 1.99-3.366 2.619-3.831.628-.466 4.294-1.426 4.919-1.752.625-.326 2.15-1.85 2.581-2.16.432-.311 1.921-1.254 2.592-1.566.67-.312 4.775-1.61 5.458-2.18.684-.57 2.115-4.14 2.747-4.659.631-.518 3.779-1.224 4.831-1.562 1.053-.338 6.637-1.937 7.801-2.49 1.165-.552 4.356-3.64 6.173-4.144 1.817-.504 14.105-1.591 15.63-1.907 1.525-.315 1.15-1.46 2.673-1.875 1.523-.415 14.141-2.308 15.607-3.106 1.465-.799 1.415-5.779 1.98-6.473s4.185-1.415 4.799-1.86c.613-.445 2.13-3.033 2.563-3.481.431-.449 1.944-1.43 2.619-1.898.675-.467 4.797-2.884 5.486-3.716.688-.833 2.149-5.589 2.777-6.269.629-.68 4.154-1.42 4.766-1.888.612-.467 2.146-3.253 2.58-3.72.433-.466 1.93-1.345 2.626-1.875.694-.53 5.01-3.644 5.71-4.483.702-.839 2.098-4.964 2.705-5.586.607-.622 3.985-1.388 4.58-1.882.596-.493 2.137-3.543 2.569-4.039.432-.496 1.884-1.551 2.615-1.913.732-.361 5.47-1.531 6.167-2.424.696-.893 1.617-7.442 2.191-8.29.574-.847 4.089-1.388 4.695-1.88.606-.494 2.145-3.539 2.58-4.03.434-.493 1.941-1.38 2.64-1.873.698-.493 5.053-2.96 5.74-4.043.688-1.083 1.901-8.025 2.508-8.952.606-.928 4.157-1.632 4.772-2.174.616-.542 2.176-3.793 2.611-4.33.435-.537 1.699-1.39 2.608-2.111.908-.722 7.21-5.826 8.297-6.554 1.088-.728 4.148-1.61 4.758-2.18.61-.568 2.128-4.082 2.56-4.65.434-.566 1.936-1.603 2.634-2.157s5.05-3.227 5.74-4.488c.691-1.262 1.942-9.558 2.552-10.646.61-1.087 4.06-1.776 4.764-2.405.704-.63 3.147-4.544 3.68-5.143.533-.6 2.122-1.46 2.716-2.046.594-.588 3.81-3.748 4.41-5 .599-1.254 2.158-9.024 2.779-10.038.62-1.015 4.065-1.702 4.665-2.133.6-.432 2.107-2.612 2.538-3.048.43-.435 1.977-1.592 2.625-2.182.648-.59 4.074-4.281 5.146-4.898s4.61-2.246 7.717-2.505c3.107-.258 26.663-.282 29.564-.598 2.9-.316 4.224-2.723 5.241-3.19 1.017-.467 5.644-2.058 6.96-2.418 1.314-.36 6.592-1.43 8.82-1.897 2.228-.468 16.044-3.224 17.913-3.717 1.87-.493 3.92-1.752 4.514-2.198.594-.446 2.182-2.709 2.618-3.153.436-.444 1.939-1.744 2.612-2.173.674-.429 4.782-2.176 5.473-2.973.69-.796 2.088-5.834 2.815-6.584.727-.75 5.288-1.788 5.91-2.415.622-.627 1.212-4.505 1.556-5.115.345-.61 1.9-1.603 2.575-2.207.676-.604 4.85-3.837 5.533-5.04.682-1.205 2.032-8.417 2.657-9.41.625-.992 3.915-2.07 4.84-2.498.927-.428 5.352-2.165 6.269-2.638.916-.473 4.119-2.036 4.727-3.035.609-.999 1.758-7.837 2.574-8.953.816-1.115 6.394-3.856 7.215-4.436.82-.58 1.947-1.982 2.636-2.52.688-.538 4.887-3.02 5.624-3.937.737-.916 2.607-6.338 3.224-7.059.616-.72 3.172-1.25 4.175-1.587 1.002-.336 6.332-2.031 7.853-2.449 1.521-.418 9.316-2.021 10.4-2.564 1.084-.542 2.174-3.397 2.61-3.946.435-.549 1.231-2.11 2.614-2.638 1.382-.529 12.603-2.915 13.97-3.705 1.368-.789 1.125-5 2.442-5.766 1.317-.765 11.177-2.735 13.364-3.422 2.186-.687 11.232-4.251 12.873-4.82 1.64-.57 5.954-1.425 6.817-2.01.864-.584 2.794-4.389 3.547-5.003.754-.613 4.883-1.662 5.496-2.362.613-.7 1.49-4.883 1.857-6.036.366-1.152 1.909-6.988 2.54-7.796.63-.808 4.19-1.548 5.031-1.897.841-.35 4.123-1.744 5.06-2.297.938-.553 5.52-3.291 6.192-4.34.671-1.05 1.231-7.395 1.868-8.253.636-.857 4.915-1.632 5.767-2.036.852-.405 3.624-2.286 4.46-2.818.835-.532 4.863-2.817 5.567-3.565.704-.748 1.96-4.703 2.88-5.41.92-.706 6.67-1.647 8.167-3.069 1.496-1.421 8.135-12.665 9.786-13.987 1.65-1.322 6.954-1.489 10.015-1.875 3.061-.387 23.2-2.288 26.716-2.763 3.515-.474 13.561-2.527 15.465-2.929 1.903-.402 6.539-1.42 7.377-1.9.839-.48 2.245-3.354 2.683-3.857.438-.502 1.643-1.628 2.572-2.176.93-.548 7.493-3.906 8.58-4.402 1.088-.496 3.373-1.234 4.47-1.553 1.097-.319 7.176-1.95 8.695-2.27 1.52-.319 7.588-1.153 9.536-1.568 1.948-.415 12.324-2.952 13.84-3.413 1.517-.46 3.776-1.753 4.358-2.114.582-.361 2.19-1.885 2.626-2.217.436-.332 1.31-1.461 2.609-1.767 1.298-.305 11.447-1.555 12.967-1.9 1.52-.345 2.81-1.874 5.275-2.241 2.466-.368 21.914-1.839 24.312-2.17 2.397-.332 3.443-1.448 4.457-1.808 1.014-.36 6.56-2.074 7.711-2.51 1.15-.437 4.79-2.358 6.097-2.722 1.307-.365 7.857-1.085 9.59-1.653 1.732-.567 9.897-4.616 11.202-5.161 1.306-.546 3.368-.95 4.46-1.386 1.091-.436 7.493-3.174 8.638-3.85 1.146-.676 4.09-3.747 5.107-4.266 1.016-.518 5.808-1.392 7.09-1.953 1.284-.56 6.705-4.171 8.303-4.777 1.598-.605 8.726-2.02 10.871-2.486 2.145-.466 13.193-2.683 14.866-3.103 1.672-.42 4.063-1.254 5.208-1.931 1.145-.677 7.439-5.457 8.528-6.191 1.088-.734 3.72-2.12 4.537-2.62.818-.5 4.36-2.927 5.268-3.385.908-.457 4.942-1.346 5.624-2.105.683-.758 1.956-6.258 2.571-6.996.616-.739 4.174-.6 4.815-1.867.64-1.266 2.635-12.308 2.875-13.33.24-1.021-11.004.98 0 1.069C831.965-.911 953-1 953-1v500H820.962c-11.004 0 .24 0 0 0H.322v-2.27z" fill-opacity=".2" fill="#0CB1E8" fill-rule="nonzero"/><path d="M.322 496.73s1.26-1.02 1.878-1.283c.618-.262 4.863-1.391 5.543-1.866.68-.475 1.99-3.366 2.619-3.831.628-.466 4.294-1.426 4.919-1.752.625-.326 2.15-1.85 2.581-2.16.432-.311 1.921-1.254 2.592-1.566.67-.312 4.775-1.61 5.458-2.18.684-.57 2.115-4.14 2.747-4.659.631-.518 3.779-1.224 4.831-1.562 1.053-.338 6.637-1.937 7.801-2.49 1.165-.552 4.356-3.64 6.173-4.144 1.817-.504 14.105-1.591 15.63-1.907 1.525-.315 1.15-1.46 2.673-1.875 1.523-.415 14.141-2.308 15.607-3.106 1.465-.799 1.415-5.779 1.98-6.473s4.185-1.415 4.799-1.86c.613-.445 2.13-3.033 2.563-3.481.431-.449 1.944-1.43 2.619-1.898.675-.467 4.797-2.884 5.486-3.716.688-.833 2.149-5.589 2.777-6.269.629-.68 4.154-1.42 4.766-1.888.612-.467 2.146-3.253 2.58-3.72.433-.466 1.93-1.345 2.626-1.875.694-.53 5.01-3.644 5.71-4.483.702-.839 2.098-4.964 2.705-5.586.607-.622 3.985-1.388 4.58-1.882.596-.493 2.137-3.543 2.569-4.039.432-.496 1.884-1.551 2.615-1.913.732-.361 5.47-1.531 6.167-2.424.696-.893 1.617-7.442 2.191-8.29.574-.847 4.089-1.388 4.695-1.88.606-.494 2.145-3.539 2.58-4.03.434-.493 1.941-1.38 2.64-1.873.698-.493 5.053-2.96 5.74-4.043.688-1.083 1.901-8.025 2.508-8.952.606-.928 4.157-1.632 4.772-2.174.616-.542 2.176-3.793 2.611-4.33.435-.537 1.699-1.39 2.608-2.111.908-.722 7.21-5.826 8.297-6.554 1.088-.728 4.148-1.61 4.758-2.18.61-.568 2.128-4.082 2.56-4.65.434-.566 1.936-1.603 2.634-2.157s5.05-3.227 5.74-4.488c.691-1.262 1.942-9.558 2.552-10.646.61-1.087 4.06-1.776 4.764-2.405.704-.63 3.147-4.544 3.68-5.143.533-.6 2.122-1.46 2.716-2.046.594-.588 3.81-3.748 4.41-5 .599-1.254 2.158-9.024 2.779-10.038.62-1.015 4.065-1.702 4.665-2.133.6-.432 2.107-2.612 2.538-3.048.43-.435 1.977-1.592 2.625-2.182.648-.59 4.074-4.281 5.146-4.898s4.61-2.246 7.717-2.505c3.107-.258 26.663-.282 29.564-.598 2.9-.316 4.224-2.723 5.241-3.19 1.017-.467 5.644-2.058 6.96-2.418 1.314-.36 6.592-1.43 8.82-1.897 2.228-.468 16.044-3.224 17.913-3.717 1.87-.493 3.92-1.752 4.514-2.198.594-.446 2.182-2.709 2.618-3.153.436-.444 1.939-1.744 2.612-2.173.674-.429 4.782-2.176 5.473-2.973.69-.796 2.088-5.834 2.815-6.584.727-.75 5.288-1.788 5.91-2.415.622-.627 1.212-4.505 1.556-5.115.345-.61 1.9-1.603 2.575-2.207.676-.604 4.85-3.837 5.533-5.04.682-1.205 2.032-8.417 2.657-9.41.625-.992 3.915-2.07 4.84-2.498.927-.428 5.352-2.165 6.269-2.638.916-.473 4.119-2.036 4.727-3.035.609-.999 1.758-7.837 2.574-8.953.816-1.115 6.394-3.856 7.215-4.436.82-.58 1.947-1.982 2.636-2.52.688-.538 4.887-3.02 5.624-3.937.737-.916 2.607-6.338 3.224-7.059.616-.72 3.172-1.25 4.175-1.587 1.002-.336 6.332-2.031 7.853-2.449 1.521-.418 9.316-2.021 10.4-2.564 1.084-.542 2.174-3.397 2.61-3.946.435-.549 1.231-2.11 2.614-2.638 1.382-.529 12.603-2.915 13.97-3.705 1.368-.789 1.125-5 2.442-5.766 1.317-.765 11.177-2.735 13.364-3.422 2.186-.687 11.232-4.251 12.873-4.82 1.64-.57 5.954-1.425 6.817-2.01.864-.584 2.794-4.389 3.547-5.003.754-.613 4.883-1.662 5.496-2.362.613-.7 1.49-4.883 1.857-6.036.366-1.152 1.909-6.988 2.54-7.796.63-.808 4.19-1.548 5.031-1.897.841-.35 4.123-1.744 5.06-2.297.938-.553 5.52-3.291 6.192-4.34.671-1.05 1.231-7.395 1.868-8.253.636-.857 4.915-1.632 5.767-2.036.852-.405 3.624-2.286 4.46-2.818.835-.532 4.863-2.817 5.567-3.565.704-.748 1.96-4.703 2.88-5.41.92-.706 6.67-1.647 8.167-3.069 1.496-1.421 8.135-12.665 9.786-13.987 1.65-1.322 6.954-1.489 10.015-1.875 3.061-.387 23.2-2.288 26.716-2.763 3.515-.474 13.561-2.527 15.465-2.929 1.903-.402 6.539-1.42 7.377-1.9.839-.48 2.245-3.354 2.683-3.857.438-.502 1.643-1.628 2.572-2.176.93-.548 7.493-3.906 8.58-4.402 1.088-.496 3.373-1.234 4.47-1.553 1.097-.319 7.176-1.95 8.695-2.27 1.52-.319 7.588-1.153 9.536-1.568 1.948-.415 12.324-2.952 13.84-3.413 1.517-.46 3.776-1.753 4.358-2.114.582-.361 2.19-1.885 2.626-2.217.436-.332 1.31-1.461 2.609-1.767 1.298-.305 11.447-1.555 12.967-1.9 1.52-.345 2.81-1.874 5.275-2.241 2.466-.368 21.914-1.839 24.312-2.17 2.397-.332 3.443-1.448 4.457-1.808 1.014-.36 6.56-2.074 7.711-2.51 1.15-.437 4.79-2.358 6.097-2.722 1.307-.365 7.857-1.085 9.59-1.653 1.732-.567 9.897-4.616 11.202-5.161 1.306-.546 3.368-.95 4.46-1.386 1.091-.436 7.493-3.174 8.638-3.85 1.146-.676 4.09-3.747 5.107-4.266 1.016-.518 5.808-1.392 7.09-1.953 1.284-.56 6.705-4.171 8.303-4.777 1.598-.605 8.726-2.02 10.871-2.486 2.145-.466 13.193-2.683 14.866-3.103 1.672-.42 4.063-1.254 5.208-1.931 1.145-.677 7.439-5.457 8.528-6.191 1.088-.734 3.72-2.12 4.537-2.62.818-.5 4.36-2.927 5.268-3.385.908-.457 4.942-1.346 5.624-2.105.683-.758 1.956-6.258 2.571-6.996.616-.739 4.174-.6 4.815-1.867.64-1.266 2.875-13.33 2.875-13.33" stroke="#0CB1E8" stroke-width="3"/><path stroke-opacity=".4" stroke="#0CB1E8" stroke-width="3" fill="red" fill-rule="nonzero" stroke-dasharray="4" d="M-1 499L953-1"/></g></svg>
