
<svg width="640" height="277" fill="none" xmlns="http://www.w3.org/2000/svg"><g clip-path="url(#clip0)" fill="#C4C4C4" stroke="#000" stroke-width="10"><path d="M279.891 253.006c7.458-4.226-22.872-33.802-7.458-26.936L283 215c6.298-1.761 18.851-2.134 28-2.134 11.436 0 3.198-6.866 35.019-6.866 31.821 0 36.481 9 33.981 9-19.187 0-1.166 38.006-12.601 38.006-5.556 0-9.899 11.629-18.399 5.814-8.5-5.814-13.281 6.333-18.395 6.333-9.944 0-3.977 12.148-16.407 2.641s-12.698 4.206-15.698 0c-8.078-11.326-26.067-10.563-18.609-14.788z"/><path d="M108.981 100c6.5-17.5-22.5-71.5-14.5-51.5-11.6 0-10.166-29-8-43.5h460c22.5 0-10.5 18.5 0 23.5s-22.5 20 0 20-12 32 0 51.5-34.5 8-22.5 16-38 34.5-27.5 46-47.5 21.5-44 38.5-38 0-38 18.5-25-13-26.5 0-26.5 0-34.5 9.5-29-17.5-31.5 0-26.5-9.5-38.5 15.5-21-25-27.5-9-22.5 0-28 0-16-1.5-28 0-1-21-22-16-5.5-38.5-15-26.5-15.5-1-15.5-30.5-16-62-17.5-31.5-27.5-13-21-30.5z"/><path d="M492 246.5c-6.333 3-21.3 7.2-30.5 0-8.5-3.333-24.7-13.3-21.5-26.5 4-16.5-7.5-7.5 11.5-29.5s-2.5-11.5 14-31.5 0-17 7.5-42-11.5-5.5-7.5-25.5-4-13 12.5-20.5 41-6.5 34.5-23S551 64.5 547 48s19 10 19-9 13 18 29.5 9 5 15.5 24 16.5S626 76 633.5 86 608 94 608 111.5s-3.5 16.5 0 30.5-19 4-19 17-23 17.5-23 31.5-25.5 2.5-26.5 13-23 10-27 24c-3.2 11.2-15 17.333-20.5 19zM189 223.5c11.5 1 0 22-11.5 36-11.5 6.5-30.5-9-47-14s-10-22-20.5-22-15-8.5-31.5-8.5S76 199.5 62 199.5 62 179 42.5 179s0-29-21.5-29 14-22 7.5-22 0-19-15-28S6 86 21 86s-4-44.5 21.5-29 20.5 0 27 0H95c14 0 15-1.5 15 14s20.5 0 20.5 15 23 3 24.5 14 6 20.5 7.5 28 15 14 15 29.5c0 12.4 7.667 19.5 11.5 21.5v20.5c0 9-11.5 23 0 24z"/></g><defs><clipPath id="clip0"><path fill="#fff" d="M0 0h640v277H0z"/></clipPath></defs></svg>
