<svg width="128" height="128" viewBox="0 0 128 128" fill="none" xmlns="http://www.w3.org/2000/svg">
<!-- https://github.com/primer/octicons/blob/de3a9b2b32253f58aead44754c1f30373b4e8887/icons/container-24.svg -->
<rect width="128" height="128" fill="white"/>
<path fill-rule="evenodd" clip-rule="evenodd" d="M67.84 26.2733C68.9876 25.6033 70.2927 25.2501 71.6217 25.2501C72.9506 25.2501 74.2557 25.6033 75.4033 26.2733L75.4267 26.2867L98.6167 40.54C99.7591 41.2089 100.707 42.1651 101.365 43.3136C102.023 44.462 102.37 45.7628 102.37 47.0867V72.14C102.37 74.84 100.93 77.34 98.5933 78.7L98.5867 78.7033L58.7067 102.16L58.6933 102.17C57.5368 102.841 56.2236 103.194 54.8867 103.194C53.5497 103.194 52.2365 102.841 51.08 102.17L50.9933 102.12L29.3167 87.1133C28.2013 86.4401 27.2788 85.49 26.6387 84.3552C25.9986 83.2205 25.6626 81.9395 25.6633 80.6367V55.46C25.6633 54.1533 25.9967 52.8933 26.61 51.7933L26.62 51.7733L26.6667 51.6867C27.3238 50.5467 28.2656 49.5968 29.4 48.93H29.4067L67.84 26.27V26.2733ZM70.3633 30.59H70.36L32.8267 52.72L53.6533 66.8767C54.0422 67.0876 54.4787 67.1954 54.921 67.1895C55.3634 67.1837 55.7968 67.0645 56.18 66.8433H56.1833L94.96 44.1633L72.8633 30.5833C72.4824 30.3654 72.0508 30.2516 71.612 30.2534C71.1731 30.2552 70.7425 30.3724 70.3633 30.5933V30.59ZM84 56.3633L73.1667 62.6967V87.8567L84 81.4833V56.3633ZM89 53.4367V78.5433L96.08 74.3767C96.4719 74.1493 96.7972 73.823 97.0236 73.4306C97.2499 73.0381 97.3694 72.5931 97.37 72.14V48.5433L89 53.4367ZM58.7 71.1567L68.1667 65.6233V90.7967L57.39 97.1367V71.7633C57.8367 71.6067 58.2733 71.4067 58.6933 71.1633L58.7 71.1567ZM52.39 97.0033V71.7667C51.9353 71.6087 51.4967 71.4078 51.08 71.1667L51.0033 71.12L30.6633 57.2967V80.64C30.6633 81.5567 31.1467 82.4 31.9267 82.8533L32.01 82.9L52.39 97.0067V97.0033Z" fill="black"/>
</svg>
