<svg width="453" height="556" fill="none" xmlns="http://www.w3.org/2000/svg"><g clip-path="url(#clip0)" fill="#C4C4C4" stroke="#000" stroke-width="10"><path d="M47.342 514.76c7.5 6-6.5 26-6.5 36h91.5c3.334-5 7.5-14.7-2.5-13.5-10 1.2-4.166-14.5 0-22.5-6.5-4.5-20.3-13.5-23.5-13.5-4 0-24.5-10-24.5 0s-22.5-6-22.5 0-19.5 7.5-12 13.5zM332.842 531.26c6 14-8.5 12-6 20h89.5c2.334-4.666 5.6-14 0-14-7 0-3.5-20.5-13-20.5s0-23.5-9-15-22.5-10-21.5 0-26 4.5-22.5 15-23.5.5-17.5 14.5z"/></g><defs><clipPath id="clip0"><path fill="#fff" d="M0 0h453v556H0z"/></clipPath></defs></svg>