<svg width="453" height="556" fill="none" xmlns="http://www.w3.org/2000/svg"><g clip-path="url(#clip0)"><path fill-rule="evenodd" clip-rule="evenodd" d="M323.018 365.132c24.354-23.555 53.135-86.238 72.539-162.904 25.815-101.994 25.258-190.114-1.245-196.822-26.502-6.708-68.914 70.537-94.728 172.531-8.857 34.995-14.61 68.356-17.275 97.356-3.154-3.148-6.302-6.443-9.359-9.644-9.979-10.449-18.995-19.889-24.108-19.889-3.305 0-9.529-1.441-16.836-3.132-19.225-4.451-45.939-10.635-46.664 3.132-.502 9.538-7.556 12.02-14.331 14.404-6.721 2.365-13.167 4.632-12.669 13.596.45 8.097-2.034 11.54-4.904 15.517-.887 1.23-1.811 2.511-2.697 3.996-3.549-32.266-11.832-71.183-24.627-112.168C94.761 80.675 48.189 5.865 22.094 14.012-4.004 22.158.258 110.177 31.611 210.607c23.897 76.546 56.634 138.209 82.408 159.602-14.317 4.847-30.757 10.415-29.178 23.051 1.715 13.717-6.207 16.655-12.75 19.081-4.905 1.818-9.035 3.349-7.75 8.919 1.38 5.977-1.468 10.474-4.948 15.968-4.09 6.458-9.052 14.295-9.052 27.532 0 12.794-6.817 17.952-13.046 22.666-5.7 4.314-10.91 8.255-9.954 17.334 1.177 11.182-1.802 20.979-4.453 29.696-1.854 6.094-3.547 11.661-3.547 16.804h422c4.667 0 11.2-1.2 0-6-6.456-2.767-5.256-11.596-3.952-21.19 1.524-11.208 3.19-23.461-7.048-28.31-8.652-4.099-6.106-10.893-3.789-17.078 2.772-7.397 5.217-13.922-12.211-13.922-17.678 0-16.739-13.276-15.899-25.16.681-9.627 1.298-18.34-8.101-18.34-10.563 0-11.511-7.084-12.454-14.126-.932-6.958-1.857-13.874-12.046-13.874-11.377 0-22.447-10.165-31.927-18.87-3.937-3.615-7.6-6.979-10.897-9.258z" fill="#C4C4C4"/><path d="M323.018 365.132l-3.476-3.594-4.384 4.24 5.017 3.467 2.843-4.113zm72.539-162.904l4.848 1.227-4.848-1.227zM394.312 5.406l1.227-4.847-1.227 4.847zm-94.728 172.531l-4.847-1.227 4.847 1.227zm-17.275 97.356l-3.533 3.539 7.537 7.523.975-10.604-4.979-.458zm-9.359-9.644l3.616-3.454-3.616 3.454zm-40.944-23.021l1.128-4.871-1.128 4.871zm-46.664 3.132l-4.993-.262 4.993.262zm-14.331 14.404l-1.659-4.717 1.659 4.717zm-12.669 13.596l-4.992.278 4.992-.278zm-4.904 15.517l-4.054-2.925 4.054 2.925zm-2.697 3.996l-4.97.547 1.63 14.817 7.635-12.803-4.295-2.561zm-24.627-112.168l4.773-1.49-4.773 1.49zM22.094 14.012l1.49 4.772-1.49-4.772zm9.518 196.595l-4.773 1.49 4.773-1.49zm82.408 159.602l1.604 4.736 8.474-2.87-6.884-5.714-3.194 3.848zM84.842 393.26l4.962-.62-4.962.62zm-12.75 19.081l-1.738-4.689 1.738 4.689zm-7.75 8.919l4.872-1.124-4.872 1.124zm-4.948 15.968l4.224 2.675-4.224-2.675zm-22.098 50.198l-3.017-3.987 3.017 3.987zm-9.954 17.334l4.973-.524-4.973.524zm-4.453 29.696l-4.784-1.455 4.784 1.455zm-3.547 16.804h-5v5h5v-5zm422-6l-1.969 4.595 1.969-4.595zm-3.952-21.19l4.955.674-4.955-.674zm-7.048-28.31l2.141-4.519-2.141 4.519zm-3.789-17.078l4.682 1.755-4.682-1.755zm-28.11-39.082l4.988.353-4.988-.353zm-20.555-32.466l4.956-.664-4.956.664zm-43.973-32.744l-3.382 3.683 3.382-3.683zm-7.421-5.664c12.874-12.451 26.471-34.716 39.211-63.081 12.801-28.5 24.937-63.618 34.7-102.19l-9.695-2.454c-9.641 38.094-21.598 72.651-34.127 100.547-12.591 28.033-25.561 48.887-37.041 59.99l6.952 7.188zm73.911-165.271c12.98-51.286 19.377-99.25 19.149-135.402-.115-18.038-1.878-33.427-5.464-44.899C410.602 12 404.845 2.914 395.539.56l-2.454 9.694c3.946.998 8.196 5.444 11.46 15.885 3.166 10.125 4.898 24.398 5.009 41.978.222 35.083-6.009 82.176-18.844 132.885l9.695 2.454zM395.539.559c-9.306-2.356-18.692 2.896-27.067 11.05-8.611 8.384-17.483 21.081-26.165 36.893-17.4 31.69-34.59 76.923-47.57 128.208l9.694 2.454c12.834-50.709 29.757-95.096 46.642-125.85 8.461-15.41 16.774-27.14 24.375-34.54 7.838-7.632 13.692-9.52 17.637-8.521l2.454-9.694zM294.737 176.71c-8.914 35.217-14.715 68.836-17.407 98.126l9.958.915c2.639-28.711 8.342-61.814 17.143-96.587l-9.694-2.454zm-8.896 95.045c-3.104-3.099-6.211-6.351-9.275-9.56l-7.232 6.907c3.05 3.193 6.239 6.533 9.442 9.73l7.065-7.077zm-9.275-9.56c-4.941-5.173-9.849-10.317-14.18-14.152-2.168-1.92-4.339-3.645-6.421-4.914-1.967-1.199-4.454-2.369-7.123-2.369v10c-.112 0 .445.01 1.919.908 1.357.827 3.023 2.115 4.996 3.862 3.949 3.497 8.539 8.297 13.577 13.572l7.232-6.907zm-27.724-21.435c-1.112 0-3.064-.265-5.944-.836-2.789-.553-6.087-1.316-9.764-2.167l-2.256 9.742c3.63.84 7.098 1.644 10.074 2.234 2.885.572 5.697 1.027 7.89 1.027v-10zm-15.708-3.003c-9.471-2.193-21.454-4.985-31.19-5.39-4.814-.2-9.758.139-13.732 1.898-2.064.914-4.012 2.274-5.475 4.265-1.482 2.018-2.252 4.393-2.388 6.968l9.986.525c.046-.867.269-1.31.461-1.572.212-.289.621-.669 1.464-1.042 1.839-.814 4.911-1.232 9.269-1.051 8.609.358 19.595 2.883 29.349 5.141l2.256-9.742zm-52.785 7.741c-.174 3.318-1.363 4.994-2.918 6.223-1.9 1.5-4.512 2.471-8.079 3.726l3.319 9.434c3.207-1.129 7.51-2.59 10.957-5.312 3.79-2.993 6.38-7.326 6.707-13.546l-9.986-.525zm-10.997 9.949c-3.13 1.102-7.362 2.526-10.576 5.193-3.67 3.046-5.758 7.415-5.426 13.398l9.985-.555c-.166-2.981.719-4.228 1.828-5.148 1.565-1.299 3.917-2.191 7.508-3.454l-3.319-9.434zm-16.002 18.591c.192 3.464-.253 5.617-.874 7.21-.658 1.691-1.616 3.058-3.092 5.104l8.109 5.851c1.393-1.931 3.112-4.274 4.301-7.324 1.226-3.146 1.798-6.763 1.541-11.396l-9.985.555zm-3.966 12.314c-.876 1.214-1.924 2.661-2.937 4.36l8.589 5.122c.758-1.272 1.558-2.386 2.457-3.631l-8.109-5.851zm6.327 6.374c-3.59-32.639-11.951-71.875-24.824-113.111l-9.546 2.98c12.716 40.733 20.922 79.332 24.43 111.225l9.94-1.094zm-24.824-113.111c-15.765-50.499-35.404-94.724-54.51-125.416-9.533-15.313-19.086-27.506-28.144-35.407-8.807-7.683-18.467-12.414-27.63-9.553l2.98 9.545c3.885-1.212 9.833.353 18.077 7.544C49.654 33.3 58.596 44.56 67.887 59.484c18.542 29.785 37.866 73.18 53.454 123.111l9.546-2.98zM20.603 9.239C11.44 12.099 6.188 21.486 3.316 32.815.362 44.465-.557 59.928.315 77.945c1.748 36.111 10.759 83.653 26.524 134.152l9.546-2.98C20.797 159.186 12 112.504 10.303 77.462c-.85-17.56.099-31.907 2.706-42.19 2.688-10.604 6.69-15.275 10.574-16.488l-2.98-9.545zm6.236 202.858c12.023 38.512 26.288 73.344 40.838 101.302 14.472 27.809 29.472 49.305 43.15 60.657l6.387-7.695c-12.097-10.04-26.352-30.072-40.667-57.579-14.237-27.358-28.288-61.63-40.162-99.665l-9.546 2.98zm85.578 153.376c-6.996 2.368-15.303 5.152-21.604 9.105-6.367 3.995-12.08 10.123-10.932 19.303l9.923-1.241c-.433-3.457 1.286-6.431 6.323-9.591 5.104-3.201 12.175-5.625 19.497-8.104l-3.207-9.472zm-32.536 28.408c.722 5.781-.643 8.326-1.962 9.731-1.647 1.753-4.091 2.752-7.565 4.04l3.476 9.377c3.07-1.138 7.857-2.821 11.379-6.572 3.849-4.099 5.587-9.881 4.595-17.817l-9.923 1.241zm-9.527 13.771c-2.152.798-5.43 1.937-7.76 3.988-1.317 1.157-2.47 2.697-3.067 4.712-.586 1.978-.52 4.024-.057 6.033l9.744-2.249c-.179-.776-.079-1.011-.099-.943-.03.104-.086.104.083-.045.226-.199.673-.496 1.523-.888.851-.391 1.841-.761 3.11-1.231l-3.477-9.377zM59.47 422.385c.838 3.629-.61 6.342-4.3 12.168l8.448 5.35c3.27-5.163 7.517-11.444 5.596-19.767l-9.744 2.249zm-4.3 12.168c-4.186 6.611-9.828 15.472-9.828 30.207h10c0-11.739 4.284-18.551 8.276-24.857l-8.448-5.35zm-9.828 30.207c0 5.405-1.407 8.867-3.256 11.458-1.972 2.762-4.612 4.803-7.807 7.221l6.034 7.974c3.034-2.296 6.918-5.191 9.911-9.385 3.117-4.366 5.118-9.88 5.118-17.268h-10zM34.28 483.439c-2.714 2.054-6.107 4.569-8.528 7.965-2.62 3.677-3.984 8.156-3.381 13.879l9.945-1.047c-.353-3.355.41-5.386 1.58-7.028 1.37-1.923 3.431-3.535 6.418-5.795l-6.035-7.974zm-11.91 21.844c1.058 10.041-1.588 18.918-4.264 27.718l9.567 2.91c2.626-8.635 5.94-19.351 4.643-31.675l-9.945 1.047zm-4.264 27.718c-1.79 5.888-3.763 12.221-3.763 18.259h10c0-4.249 1.414-9.048 3.33-15.349l-9.567-2.91zm1.237 23.259h422v-10h-422v10zm422 0c1.34 0 2.925-.084 4.389-.335a13.187 13.187 0 002.366-.615c.719-.268 1.912-.804 2.898-1.89 1.219-1.343 1.9-3.326 1.328-5.452-.456-1.694-1.55-2.839-2.285-3.49-1.526-1.35-3.85-2.581-6.726-3.814l-3.939 9.191c1.294.555 2.253 1.024 2.944 1.409.716.399 1.021.638 1.092.702.155.137-.451-.315-.742-1.399a4.18 4.18 0 01.004-2.167c.206-.77.586-1.334.918-1.7.319-.351.614-.545.761-.632.081-.048.143-.079.182-.097.038-.018.061-.027.063-.028.002 0-.043.016-.147.042a5.152 5.152 0 01-.407.084c-.724.124-1.705.191-2.699.191v10zm1.97-15.596c-.815-.349-1.613-1.019-1.877-3.896-.281-3.063.232-7.039.91-12.024l-9.909-1.347c-.627 4.608-1.366 9.843-.959 14.284.424 4.628 2.254 9.756 7.896 12.174l3.939-9.191zm-.967-15.92c.737-5.424 1.667-12.004.888-17.871-.822-6.197-3.654-12.27-10.75-15.632l-4.281 9.037c3.141 1.488 4.595 3.966 5.118 7.91.567 4.273-.098 9.424-.884 15.209l9.909 1.347zm-9.862-33.503c-1.602-.758-2.318-1.467-2.649-1.928-.304-.423-.471-.893-.507-1.57-.09-1.737.646-3.937 1.908-7.306l-9.364-3.509c-1.055 2.815-2.75 7.105-2.53 11.335.12 2.307.794 4.691 2.374 6.888 1.552 2.159 3.762 3.837 6.487 5.127l4.281-9.037zm-1.248-10.804c.657-1.753 1.484-3.926 1.924-6.024.439-2.092.677-4.895-.625-7.621-1.376-2.882-3.957-4.637-6.958-5.639-2.918-.975-6.649-1.393-11.234-1.393v10c4.129 0 6.628.397 8.067.878 1.355.452 1.258.791 1.102.464-.081-.169.115.046-.139 1.257-.253 1.207-.772 2.623-1.501 4.569l9.364 3.509zm-16.893-20.677c-3.827 0-6.111-.722-7.489-1.548-1.295-.777-2.15-1.86-2.745-3.389-1.378-3.54-1.123-8.566-.677-14.87l-9.975-.706c-.395 5.579-1.03 13.133 1.333 19.203 1.274 3.275 3.447 6.254 6.921 8.338 3.393 2.035 7.62 2.972 12.632 2.972v-10zm-10.911-19.807c.317-4.482.778-10.068-.439-14.466-.66-2.385-1.911-4.853-4.268-6.673-2.362-1.823-5.263-2.554-8.382-2.554v10c1.581 0 2.127.359 2.272.47.148.115.464.427.74 1.423.654 2.365.466 5.949.102 11.094l9.975.706zm-13.089-23.693c-3.966 0-5.044-1.2-5.608-2.093-.976-1.545-1.378-3.87-1.89-7.697l-9.912 1.327c.43 3.215.974 7.954 3.348 11.712 2.787 4.41 7.465 6.751 14.062 6.751v-10zm-7.498-9.79c-.425-3.172-.96-7.833-3.266-11.529-1.255-2.012-3.028-3.768-5.474-4.975-2.392-1.181-5.163-1.706-8.262-1.706v10c1.996 0 3.161.34 3.837.673.623.308 1.049.715 1.415 1.302.937 1.502 1.331 3.777 1.838 7.562l9.912-1.327zm-17.002-18.21c-4.23 0-8.838-1.911-13.877-5.314-5.01-3.384-9.872-7.835-14.668-12.239l-6.764 7.366c4.684 4.301 10.097 9.285 15.836 13.16 5.71 3.856 12.325 7.027 19.473 7.027v-10zm-28.545-17.553c-3.85-3.535-7.793-7.17-11.436-9.688l-5.686 8.226c2.95 2.039 6.334 5.132 10.358 8.828l6.764-7.366z" fill="#000"/><ellipse cx="142.342" cy="402.26" rx="6.5" ry="20" fill="#000"/><ellipse cx="298.342" cy="397.26" rx="6.5" ry="20" fill="#000"/><path d="M195.842 487.484c2.973-1.678 10.704-4.027 17.839 0 7.136 4.027 11.774 9.348 13.201 11.506 3.568-2.158 12.559-7.479 19.98-11.506 7.421-4.027 16.412-1.678 19.98 0-3.568 2.397-12.559 8.054-19.98 11.506-7.421 3.452-16.412 4.315-19.98 4.315 1.19 2.157-3.233 12.299 1.96 18.455 17.77 21.066 16.032 15.189-1.96 6-22.611 8.745-26.23 16.348-1.783-6 6.369-5.822-1.309-16.538 0-18.455-2.736-.6-9.42-2.517-14.272-5.394-4.852-2.876-12.012-8.15-14.985-10.427z" stroke="#000" stroke-width="10" stroke-linejoin="round"/></g><defs><clipPath id="clip0"><path fill="#fff" d="M0 0h453v556H0z"/></clipPath></defs></svg>