<svg width="26" height="28" xmlns="http://www.w3.org/2000/svg"><g transform="matrix(-1 0 0 1 26 0)" fill-rule="nonzero" fill="none"><path d="M24.299 21.13c.019-2.27-1.056-4.592-3.286-7.097-1.685-1.893-3.791-3.148-6.277-3.744-.57-.136-1.12-.213-1.702-.27.023.002.146-.555.154-.615.004-.026.002-.347.005-.347 1.115-.093 2.37-.39 3.59-.855 1.591-.605 2.991-1.436 3.942-2.338 1.055-1.001 1.456-2.005 1.129-2.826-.325-.816-1.304-1.289-2.757-1.334a1.527 1.527 0 00-.098-.392C18.663.466 17.623 0 16.073 0c-1.251 0-2.746.307-4.21.864-1.621.618-3.057 1.49-3.975 2.41a7.48 7.48 0 00-.85.194C5.46 3.926 4.147 5.182 2.77 6.52 2.58 6.705 1.478 7.785 1.325 8 .582 9.045 0 9.82 0 10.657v.017c.072 1.903 2.275 3.322 4.654 3.808-1.237 2.38-.874 4.48-.316 5.867a8.43 8.43 0 001.332 2.218c-1.58 1.112-2.377 2.336-2.203 3.406.178 1.094 1.331 1.57 2.35 1.57.818 0 1.755-.245 2.72-.72 1.324-.65 2.663-1.719 3.905-3.11.066.123.137.244.213.361a.601.601 0 00-.074.225c-.385.308-.732.72-.878 1.209-.221.737.126 1.529.797 1.922.698.41 1.498.57 2.308.57.923 0 1.938-.21 3.038-.631.161-.062.262-.206.448-.223a7.068 7.068 0 003.863-1.61 2.55 2.55 0 001.331.374c1.385 0 2.512-1.101 2.512-2.456a2.453 2.453 0 00-1.701-2.325z" fill="#DDD"/><circle fill="#000" cx="6" cy="9" r="1"/><path d="M15.972 15.361c-.083-.29-.325-.435-.54-.323-.45.236-.874.553-1.263.942-.185.186-.224.54-.087.791.082.15.208.229.336.229a.35.35 0 00.248-.111c.328-.33.687-.597 1.067-.796.215-.113.322-.44.239-.732z" fill="#000"/><path d="M24.299 21.13c.019-2.27-1.056-4.592-3.286-7.097-1.685-1.893-3.791-3.148-6.277-3.744-.57-.136-1.12-.213-1.702-.27.023.002.146-.555.154-.615.004-.026.002-.347.005-.347 1.115-.093 2.37-.39 3.59-.855 1.591-.605 2.991-1.436 3.942-2.338 1.055-1.001 1.456-2.005 1.129-2.826-.325-.816-1.304-1.289-2.757-1.334a1.527 1.527 0 00-.098-.392C18.663.466 17.623 0 16.073 0c-1.251 0-2.746.307-4.21.864-1.621.618-3.057 1.49-3.975 2.41a7.48 7.48 0 00-.85.194c-1.578.458-3.205 1.446-4.581 2.784a.467.467 0 00-.002.67.493.493 0 00.686.003c1.246-1.211 2.767-2.14 4.173-2.547a5.824 5.824 0 011.614-.244c.829 0 1.576.217 2.226.645l.012.008c.13.087.255.215.41.266.149.05.32.03.448-.061l.002-.002c.314-.226.639-.436.975-.629a13.55 13.55 0 011.898-.89l.014-.006c1.307-.496 2.717-.853 4.129-.814 1.023.028 1.737.301 1.908.731.17.43-.165 1.103-.9 1.8-.86.817-2.146 1.575-3.619 2.136-1.294.493-2.621.783-3.739.818a.48.48 0 00-.47.474v.68c-.369 1.636-1.2 2.846-2.472 3.6-1.082.641-2.489.925-3.962.8-2.552-.218-4.755-1.61-4.818-3.042.003-.632.345-1.458.962-2.327a.468.468 0 00-.122-.66.492.492 0 00-.675.12C.393 8.824 0 9.82 0 10.656v.017c.072 1.903 2.275 3.322 4.654 3.808-1.237 2.38-.874 4.48-.316 5.867a8.43 8.43 0 001.332 2.218c-1.58 1.112-2.377 2.336-2.203 3.406.178 1.094 1.331 1.57 2.35 1.57.818 0 1.755-.245 2.72-.72 1.324-.65 2.663-1.719 3.905-3.11.066.123.137.244.213.361a.601.601 0 00-.074.225c-.385.308-.732.72-.878 1.209-.221.737.126 1.529.797 1.922.698.41 1.498.57 2.308.57.923 0 1.938-.21 3.038-.631.161-.062.262-.206.448-.223a7.068 7.068 0 003.863-1.61 2.55 2.55 0 001.331.374c1.385 0 2.512-1.101 2.512-2.456a2.453 2.453 0 00-1.701-2.325zM18.103 1.733a9.862 9.862 0 00-.201.02 13.82 13.82 0 00-5.85 2.065l-.007.004c-.103.066-.205.132-.304.199a4.927 4.927 0 00-2.297-.814c.763-.552 1.721-1.06 2.77-1.46 1.355-.515 2.726-.8 3.859-.8 1.09 0 1.846.265 2.022.708.01.025.018.05.025.077l-.017.001zm3.683 22.852a6.065 6.065 0 01-3.56 1.614c-.309.008-.568.165-.782.303-1.682.636-3.104.719-4.225.247-.395-.166-.716-.538-.585-.976.1-.338.413-.653.742-.872.917.736 2.317 1.287 2.382 1.313a.493.493 0 00.63-.265.47.47 0 00-.27-.616c-.44-.172-1.71-.745-2.326-1.339-.005-.006-.01-.014-.017-.02-.405-.446-.632-.947-.803-1.5a5.188 5.188 0 01.406-3.949.47.47 0 00-.203-.64.49.49 0 00-.655.197 6.23 6.23 0 00-.722 3.37c.032.44.11.863.232 1.267-1.702 2.003-4.181 3.886-6.15 3.885-.233 0-.46-.026-.677-.082-.316-.082-.708-.27-.778-.698-.097-.596.44-1.637 2.237-2.772a.47.47 0 00.076-.738 7.298 7.298 0 01-1.51-2.345c-.712-1.796-.562-3.59.443-5.338l.033.003a8.9 8.9 0 00.758.032c2.418 0 5.006-.996 6.23-3.72.182-.346 2.73.477 2.954.558 1.297.464 2.488 1.176 3.64 2.179a7.231 7.231 0 01.991.969c2.105 2.362 3.102 4.51 3.05 6.57v.012c0 1.274-.616 2.475-1.541 3.351zm1.702.375a1.57 1.57 0 01-.586-.113 6.134 6.134 0 001.18-2.15c.058-.187.106-.377.145-.568.484.257.803.757.803 1.324 0 .831-.692 1.507-1.542 1.507z" fill="#000"/></g></svg>