<svg viewBox="0 0 512 512" fill="none" xmlns="http://www.w3.org/2000/svg">
<path d="M91 0C40.7421 0 0 40.7421 0 91V298L33.5 271L46 287L82.5 235.5L89.5 245L139.5 182.5L210 246.5L349.5 115L446 257.5L481 287.5L512 254V91C512 40.7421 471.258 0 421 0H91Z" fill="black"/>
<path d="M167.5 285C164.7 275 195 256.833 210.5 249C201 254.763 182.1 269.131 182.5 280.5C183 294.711 224.5 303 263.5 319.5C302.5 336 353 347 358 382C362 410 285.667 447.333 247 462.5L184.5 438.5C296 402 310.5 379.5 310.5 370.5C310.5 361.5 304 351 241 331C178 311 171 297.5 167.5 285Z" fill="black"/>
</svg>
